<svg id="visual" viewBox="0 0 900 600" width="900" height="600" xmlns="http://www.w3.org/2000/svg" xmlns:xlink="http://www.w3.org/1999/xlink" version="1.1"><rect x="0" y="0" width="900" height="600" fill="#000000"></rect><defs><linearGradient id="grad1_0" x1="33.3%" y1="0%" x2="100%" y2="100%"><stop offset="20%" stop-color="#000000" stop-opacity="1"></stop><stop offset="80%" stop-color="#000000" stop-opacity="1"></stop></linearGradient></defs><defs><linearGradient id="grad2_0" x1="0%" y1="0%" x2="66.7%" y2="100%"><stop offset="20%" stop-color="#000000" stop-opacity="1"></stop><stop offset="80%" stop-color="#000000" stop-opacity="1"></stop></linearGradient></defs><g transform="translate(900, 0)"><path d="M0 486.7C-51.8 455.3 -103.7 423.9 -168.4 406.5C-233.1 389.1 -310.7 385.8 -344.2 344.2C-377.7 302.5 -367 222.6 -383.4 158.8C-399.8 95.1 -443.3 47.5 -486.7 0L0 0Z" fill="#00b2c2"></path></g><g transform="translate(0, 600)"><path d="M0 -486.7C51.3 -440.9 102.6 -395.1 151.9 -366.8C201.2 -338.4 248.5 -327.5 302.6 -302.6C356.8 -277.8 417.9 -239 449.7 -186.3C481.5 -133.5 484.1 -66.8 486.7 0L0 0Z" fill="#00b2c2"></path></g></svg>