<svg id="visual" viewBox="0 0 900 600" width="900" height="600" xmlns="http://www.w3.org/2000/svg" xmlns:xlink="http://www.w3.org/1999/xlink" version="1.1"><rect x="0" y="0" width="900" height="600" fill="#84dce5"></rect><defs><linearGradient id="grad1_0" x1="33.3%" y1="0%" x2="100%" y2="100%"><stop offset="20%" stop-color="#faf77a" stop-opacity="1"></stop><stop offset="80%" stop-color="#faf77a" stop-opacity="1"></stop></linearGradient></defs><defs><linearGradient id="grad1_1" x1="33.3%" y1="0%" x2="100%" y2="100%"><stop offset="20%" stop-color="#faf77a" stop-opacity="1"></stop><stop offset="80%" stop-color="#b0f8a4" stop-opacity="1"></stop></linearGradient></defs><defs><linearGradient id="grad1_2" x1="33.3%" y1="0%" x2="100%" y2="100%"><stop offset="20%" stop-color="#80edd0" stop-opacity="1"></stop><stop offset="80%" stop-color="#b0f8a4" stop-opacity="1"></stop></linearGradient></defs><defs><linearGradient id="grad1_3" x1="33.3%" y1="0%" x2="100%" y2="100%"><stop offset="20%" stop-color="#80edd0" stop-opacity="1"></stop><stop offset="80%" stop-color="#84dce5" stop-opacity="1"></stop></linearGradient></defs><defs><linearGradient id="grad2_0" x1="0%" y1="0%" x2="66.7%" y2="100%"><stop offset="20%" stop-color="#faf77a" stop-opacity="1"></stop><stop offset="80%" stop-color="#faf77a" stop-opacity="1"></stop></linearGradient></defs><defs><linearGradient id="grad2_1" x1="0%" y1="0%" x2="66.7%" y2="100%"><stop offset="20%" stop-color="#b0f8a4" stop-opacity="1"></stop><stop offset="80%" stop-color="#faf77a" stop-opacity="1"></stop></linearGradient></defs><defs><linearGradient id="grad2_2" x1="0%" y1="0%" x2="66.7%" y2="100%"><stop offset="20%" stop-color="#b0f8a4" stop-opacity="1"></stop><stop offset="80%" stop-color="#80edd0" stop-opacity="1"></stop></linearGradient></defs><defs><linearGradient id="grad2_3" x1="0%" y1="0%" x2="66.7%" y2="100%"><stop offset="20%" stop-color="#84dce5" stop-opacity="1"></stop><stop offset="80%" stop-color="#80edd0" stop-opacity="1"></stop></linearGradient></defs><g transform="translate(900, 0)"><path d="M0 378.6C-49.6 373.5 -99.1 368.4 -144.9 349.8C-190.6 331.1 -232.5 298.9 -260.2 260.2C-287.9 221.6 -301.4 176.5 -318.7 132C-336.1 87.6 -357.3 43.8 -378.6 0L0 0Z" fill="#7be5de"></path><path d="M0 283.9C-37.2 280.1 -74.4 276.3 -108.7 262.3C-143 248.3 -174.4 224.2 -195.2 195.2C-215.9 166.2 -226 132.3 -239.1 99C-252.1 65.7 -268 32.8 -283.9 0L0 0Z" fill="#93f4bc"></path><path d="M0 189.3C-24.8 186.8 -49.6 184.2 -72.4 174.9C-95.3 165.6 -116.3 149.4 -130.1 130.1C-144 110.8 -150.7 88.2 -159.4 66C-168 43.8 -178.7 21.9 -189.3 0L0 0Z" fill="#d3f98d"></path><path d="M0 94.6C-12.4 93.4 -24.8 92.1 -36.2 87.4C-47.7 82.8 -58.1 74.7 -65.1 65.1C-72 55.4 -75.3 44.1 -79.7 33C-84 21.9 -89.3 10.9 -94.6 0L0 0Z" fill="#faf77a"></path></g><g transform="translate(0, 600)"><path d="M0 -378.6C45.2 -362.6 90.4 -346.7 137 -330.7C183.6 -314.8 231.6 -298.9 267.7 -267.7C303.8 -236.5 328.1 -189.9 344.6 -142.7C361.1 -95.6 369.8 -47.8 378.6 0L0 0Z" fill="#7be5de"></path><path d="M0 -283.9C33.9 -272 67.8 -260 102.8 -248.1C137.7 -236.1 173.7 -224.2 200.8 -200.8C227.9 -177.4 246.1 -142.4 258.5 -107.1C270.8 -71.7 277.4 -35.8 283.9 0L0 0Z" fill="#93f4bc"></path><path d="M0 -189.3C22.6 -181.3 45.2 -173.3 68.5 -165.4C91.8 -157.4 115.8 -149.5 133.8 -133.8C151.9 -118.2 164.1 -95 172.3 -71.4C180.6 -47.8 184.9 -23.9 189.3 0L0 0Z" fill="#d3f98d"></path><path d="M0 -94.6C11.3 -90.7 22.6 -86.7 34.3 -82.7C45.9 -78.7 57.9 -74.7 66.9 -66.9C76 -59.1 82 -47.5 86.2 -35.7C90.3 -23.9 92.5 -11.9 94.6 0L0 0Z" fill="#faf77a"></path></g></svg>