<svg id="visual" viewBox="0 0 900 600" width="900" height="600" xmlns="http://www.w3.org/2000/svg" xmlns:xlink="http://www.w3.org/1999/xlink" version="1.1"><rect x="0" y="0" width="900" height="600" fill="#84dce5"></rect><defs><linearGradient id="grad1_0" x1="33.3%" y1="0%" x2="100%" y2="100%"><stop offset="20%" stop-color="#faf77a" stop-opacity="1"></stop><stop offset="80%" stop-color="#faf77a" stop-opacity="1"></stop></linearGradient></defs><defs><linearGradient id="grad1_1" x1="33.3%" y1="0%" x2="100%" y2="100%"><stop offset="20%" stop-color="#faf77a" stop-opacity="1"></stop><stop offset="80%" stop-color="#b0f8a4" stop-opacity="1"></stop></linearGradient></defs><defs><linearGradient id="grad1_2" x1="33.3%" y1="0%" x2="100%" y2="100%"><stop offset="20%" stop-color="#80edd0" stop-opacity="1"></stop><stop offset="80%" stop-color="#b0f8a4" stop-opacity="1"></stop></linearGradient></defs><defs><linearGradient id="grad1_3" x1="33.3%" y1="0%" x2="100%" y2="100%"><stop offset="20%" stop-color="#80edd0" stop-opacity="1"></stop><stop offset="80%" stop-color="#84dce5" stop-opacity="1"></stop></linearGradient></defs><defs><linearGradient id="grad2_0" x1="0%" y1="0%" x2="66.7%" y2="100%"><stop offset="20%" stop-color="#faf77a" stop-opacity="1"></stop><stop offset="80%" stop-color="#faf77a" stop-opacity="1"></stop></linearGradient></defs><defs><linearGradient id="grad2_1" x1="0%" y1="0%" x2="66.7%" y2="100%"><stop offset="20%" stop-color="#b0f8a4" stop-opacity="1"></stop><stop offset="80%" stop-color="#faf77a" stop-opacity="1"></stop></linearGradient></defs><defs><linearGradient id="grad2_2" x1="0%" y1="0%" x2="66.7%" y2="100%"><stop offset="20%" stop-color="#b0f8a4" stop-opacity="1"></stop><stop offset="80%" stop-color="#80edd0" stop-opacity="1"></stop></linearGradient></defs><defs><linearGradient id="grad2_3" x1="0%" y1="0%" x2="66.7%" y2="100%"><stop offset="20%" stop-color="#84dce5" stop-opacity="1"></stop><stop offset="80%" stop-color="#80edd0" stop-opacity="1"></stop></linearGradient></defs><g transform="translate(900, 0)"><path d="M0 486.7C-38.2 466.1 -76.5 445.5 -117.2 437.6C-158 429.6 -201.4 434.3 -243.4 421.5C-285.4 408.8 -326.1 378.5 -333.8 333.8C-341.4 289 -316.1 229.8 -339.5 196C-362.8 162.2 -434.9 153.7 -467.5 125.3C-500.2 96.8 -493.5 48.4 -486.7 0L0 0Z" fill="#7be5de"></path><path d="M0 365.1C-28.7 349.6 -57.3 334.1 -87.9 328.2C-118.5 322.2 -151 325.7 -182.5 316.2C-214 306.6 -244.6 283.9 -250.3 250.3C-256.1 216.8 -237.1 172.4 -254.6 147C-272.1 121.6 -326.1 115.3 -350.6 94C-375.1 72.6 -370.1 36.3 -365.1 0L0 0Z" fill="#93f4bc"></path><path d="M0 243.4C-19.1 233.1 -38.2 222.8 -58.6 218.8C-79 214.8 -100.7 217.2 -121.7 210.8C-142.7 204.4 -163 189.2 -166.9 166.9C-170.7 144.5 -158.1 114.9 -169.7 98C-181.4 81.1 -217.4 76.9 -233.8 62.6C-250.1 48.4 -246.7 24.2 -243.4 0L0 0Z" fill="#d3f98d"></path><path d="M0 121.7C-9.6 116.5 -19.1 111.4 -29.3 109.4C-39.5 107.4 -50.3 108.6 -60.8 105.4C-71.3 102.2 -81.5 94.6 -83.4 83.4C-85.4 72.3 -79 57.5 -84.9 49C-90.7 40.5 -108.7 38.4 -116.9 31.3C-125 24.2 -123.4 12.1 -121.7 0L0 0Z" fill="#faf77a"></path></g><g transform="translate(0, 600)"><path d="M0 -486.7C32.4 -440.4 64.8 -394 102 -380.6C139.1 -367.1 181 -386.6 224 -388C267 -389.4 311.2 -372.7 344.2 -344.2C377.2 -315.6 399.1 -275.2 404.4 -233.5C409.8 -191.8 398.6 -148.9 409.6 -109.7C420.5 -70.6 453.6 -35.3 486.7 0L0 0Z" fill="#7be5de"></path><path d="M0 -365.1C24.3 -330.3 48.6 -295.5 76.5 -285.4C104.3 -275.3 135.7 -289.9 168 -291C200.3 -292 233.4 -279.5 258.1 -258.1C282.9 -236.7 299.3 -206.4 303.3 -175.1C307.3 -143.9 298.9 -111.6 307.2 -82.3C315.4 -53 340.2 -26.5 365.1 0L0 0Z" fill="#93f4bc"></path><path d="M0 -243.4C16.2 -220.2 32.4 -197 51 -190.3C69.6 -183.6 90.5 -193.3 112 -194C133.5 -194.7 155.6 -186.4 172.1 -172.1C188.6 -157.8 199.5 -137.6 202.2 -116.8C204.9 -95.9 199.3 -74.4 204.8 -54.9C210.3 -35.3 226.8 -17.7 243.4 0L0 0Z" fill="#d3f98d"></path><path d="M0 -121.7C8.1 -110.1 16.2 -98.5 25.5 -95.1C34.8 -91.8 45.2 -96.6 56 -97C66.8 -97.3 77.8 -93.2 86 -86C94.3 -78.9 99.8 -68.8 101.1 -58.4C102.4 -48 99.6 -37.2 102.4 -27.4C105.1 -17.7 113.4 -8.8 121.7 0L0 0Z" fill="#faf77a"></path></g></svg>