<svg id="visual" viewBox="0 0 900 600" width="900" height="600" xmlns="http://www.w3.org/2000/svg" xmlns:xlink="http://www.w3.org/1999/xlink" version="1.1"><rect x="0" y="0" width="900" height="600" fill="#0066FF"></rect><defs><linearGradient id="grad1_0" x1="33.3%" y1="0%" x2="100%" y2="100%"><stop offset="20%" stop-color="#efff79" stop-opacity="1"></stop><stop offset="80%" stop-color="#efff79" stop-opacity="1"></stop></linearGradient></defs><defs><linearGradient id="grad1_1" x1="33.3%" y1="0%" x2="100%" y2="100%"><stop offset="20%" stop-color="#efff79" stop-opacity="1"></stop><stop offset="80%" stop-color="#ffa25c" stop-opacity="1"></stop></linearGradient></defs><defs><linearGradient id="grad1_2" x1="33.3%" y1="0%" x2="100%" y2="100%"><stop offset="20%" stop-color="#ff49b1" stop-opacity="1"></stop><stop offset="80%" stop-color="#ffa25c" stop-opacity="1"></stop></linearGradient></defs><defs><linearGradient id="grad1_3" x1="33.3%" y1="0%" x2="100%" y2="100%"><stop offset="20%" stop-color="#ff49b1" stop-opacity="1"></stop><stop offset="80%" stop-color="#0066ff" stop-opacity="1"></stop></linearGradient></defs><defs><linearGradient id="grad2_0" x1="0%" y1="0%" x2="66.7%" y2="100%"><stop offset="20%" stop-color="#efff79" stop-opacity="1"></stop><stop offset="80%" stop-color="#efff79" stop-opacity="1"></stop></linearGradient></defs><defs><linearGradient id="grad2_1" x1="0%" y1="0%" x2="66.7%" y2="100%"><stop offset="20%" stop-color="#ffa25c" stop-opacity="1"></stop><stop offset="80%" stop-color="#efff79" stop-opacity="1"></stop></linearGradient></defs><defs><linearGradient id="grad2_2" x1="0%" y1="0%" x2="66.7%" y2="100%"><stop offset="20%" stop-color="#ffa25c" stop-opacity="1"></stop><stop offset="80%" stop-color="#ff49b1" stop-opacity="1"></stop></linearGradient></defs><defs><linearGradient id="grad2_3" x1="0%" y1="0%" x2="66.7%" y2="100%"><stop offset="20%" stop-color="#0066ff" stop-opacity="1"></stop><stop offset="80%" stop-color="#ff49b1" stop-opacity="1"></stop></linearGradient></defs><g transform="translate(900, 0)"><path d="M0 324.5C-59.9 317.8 -119.8 311.2 -162.2 281C-204.7 250.9 -229.6 197.3 -253.7 146.5C-277.9 95.7 -301.2 47.9 -324.5 0L0 0Z" fill="#cb50e1"></path><path d="M0 243.4C-44.9 238.4 -89.9 233.4 -121.7 210.8C-153.5 188.2 -172.2 147.9 -190.3 109.9C-208.4 71.8 -225.9 35.9 -243.4 0L0 0Z" fill="#ff6e80"></path><path d="M0 162.2C-30 158.9 -59.9 155.6 -81.1 140.5C-102.3 125.4 -114.8 98.6 -126.9 73.3C-138.9 47.9 -150.6 23.9 -162.2 0L0 0Z" fill="#ffd455"></path><path d="M0 81.1C-15 79.5 -30 77.8 -40.6 70.3C-51.2 62.7 -57.4 49.3 -63.4 36.6C-69.5 23.9 -75.3 12 -81.1 0L0 0Z" fill="#efff79"></path></g><g transform="translate(0, 600)"><path d="M0 -324.5C54 -311.8 108 -299.1 158 -273.7C208 -248.2 253.9 -210 281 -162.2C308.1 -114.5 316.3 -57.3 324.5 0L0 0Z" fill="#cb50e1"></path><path d="M0 -243.4C40.5 -233.9 81 -224.3 118.5 -205.2C156 -186.2 190.5 -157.5 210.8 -121.7C231.1 -85.9 237.2 -42.9 243.4 0L0 0Z" fill="#ff6e80"></path><path d="M0 -162.2C27 -155.9 54 -149.6 79 -136.8C104 -124.1 127 -105 140.5 -81.1C154.1 -57.3 158.2 -28.6 162.2 0L0 0Z" fill="#ffd455"></path><path d="M0 -81.1C13.5 -78 27 -74.8 39.5 -68.4C52 -62.1 63.5 -52.5 70.3 -40.6C77 -28.6 79.1 -14.3 81.1 0L0 0Z" fill="#efff79"></path></g></svg>