<svg id="visual" viewBox="0 0 900 600" width="900" height="600" xmlns="http://www.w3.org/2000/svg" xmlns:xlink="http://www.w3.org/1999/xlink" version="1.1"><rect x="0" y="0" width="900" height="600" fill="#d5ecfe"></rect><defs><linearGradient id="grad1_0" x1="33.3%" y1="100%" x2="100%" y2="0%"><stop offset="20%" stop-color="#34568b" stop-opacity="1"></stop><stop offset="80%" stop-color="#34568b" stop-opacity="1"></stop></linearGradient></defs><defs><linearGradient id="grad1_1" x1="33.3%" y1="100%" x2="100%" y2="0%"><stop offset="20%" stop-color="#34568b" stop-opacity="1"></stop><stop offset="80%" stop-color="#6586b1" stop-opacity="1"></stop></linearGradient></defs><defs><linearGradient id="grad1_2" x1="33.3%" y1="100%" x2="100%" y2="0%"><stop offset="20%" stop-color="#9ab8d7" stop-opacity="1"></stop><stop offset="80%" stop-color="#6586b1" stop-opacity="1"></stop></linearGradient></defs><defs><linearGradient id="grad1_3" x1="33.3%" y1="100%" x2="100%" y2="0%"><stop offset="20%" stop-color="#9ab8d7" stop-opacity="1"></stop><stop offset="80%" stop-color="#d5ecfe" stop-opacity="1"></stop></linearGradient></defs><defs><linearGradient id="grad2_0" x1="0%" y1="100%" x2="66.7%" y2="0%"><stop offset="20%" stop-color="#34568b" stop-opacity="1"></stop><stop offset="80%" stop-color="#34568b" stop-opacity="1"></stop></linearGradient></defs><defs><linearGradient id="grad2_1" x1="0%" y1="100%" x2="66.7%" y2="0%"><stop offset="20%" stop-color="#6586b1" stop-opacity="1"></stop><stop offset="80%" stop-color="#34568b" stop-opacity="1"></stop></linearGradient></defs><defs><linearGradient id="grad2_2" x1="0%" y1="100%" x2="66.7%" y2="0%"><stop offset="20%" stop-color="#6586b1" stop-opacity="1"></stop><stop offset="80%" stop-color="#9ab8d7" stop-opacity="1"></stop></linearGradient></defs><defs><linearGradient id="grad2_3" x1="0%" y1="100%" x2="66.7%" y2="0%"><stop offset="20%" stop-color="#d5ecfe" stop-opacity="1"></stop><stop offset="80%" stop-color="#9ab8d7" stop-opacity="1"></stop></linearGradient></defs><g transform="translate(900, 600)"><path d="M-351.5 0C-311.7 -34.8 -271.9 -69.6 -247.6 -102.6C-223.3 -135.5 -214.6 -166.6 -195.9 -195.9C-177.1 -225.2 -148.4 -252.8 -114 -275.3C-79.7 -297.9 -39.9 -315.4 0 -333L0 0Z" fill="#b7d2ea"></path><path d="M-263.7 0C-233.8 -26.1 -203.9 -52.2 -185.7 -76.9C-167.5 -101.6 -161 -124.9 -146.9 -146.9C-132.8 -168.9 -111.3 -189.6 -85.5 -206.5C-59.8 -223.4 -29.9 -236.6 0 -249.7L0 0Z" fill="#7e9fc4"></path><path d="M-175.8 0C-155.9 -17.4 -135.9 -34.8 -123.8 -51.3C-111.7 -67.7 -107.3 -83.3 -97.9 -97.9C-88.6 -112.6 -74.2 -126.4 -57 -137.7C-39.9 -148.9 -19.9 -157.7 0 -166.5L0 0Z" fill="#4c6e9e"></path><path d="M-87.9 0C-77.9 -8.7 -68 -17.4 -61.9 -25.6C-55.8 -33.9 -53.7 -41.6 -49 -49C-44.3 -56.3 -37.1 -63.2 -28.5 -68.8C-19.9 -74.5 -10 -78.9 0 -83.2L0 0Z" fill="#34568b"></path></g><g transform="translate(0, 0)"><path d="M321 0C313.9 38.8 306.8 77.7 298.4 123.6C290 169.6 280.4 222.6 248.6 248.6C216.7 274.5 162.6 273.4 117.5 283.6C72.3 293.9 36.2 315.4 0 337L0 0Z" fill="#b7d2ea"></path><path d="M240.8 0C235.4 29.1 230.1 58.2 223.8 92.7C217.5 127.2 210.3 167 186.4 186.4C162.5 205.9 122 205.1 88.1 212.7C54.3 220.4 27.1 236.6 0 252.8L0 0Z" fill="#7e9fc4"></path><path d="M160.5 0C156.9 19.4 153.4 38.8 149.2 61.8C145 84.8 140.2 111.3 124.3 124.3C108.4 137.3 81.3 136.7 58.7 141.8C36.2 146.9 18.1 157.7 0 168.5L0 0Z" fill="#4c6e9e"></path><path d="M80.3 0C78.5 9.7 76.7 19.4 74.6 30.9C72.5 42.4 70.1 55.7 62.1 62.1C54.2 68.6 40.7 68.4 29.4 70.9C18.1 73.5 9 78.9 0 84.3L0 0Z" fill="#34568b"></path></g></svg>