<svg id="visual" viewBox="0 0 900 600" width="900" height="600" xmlns="http://www.w3.org/2000/svg" xmlns:xlink="http://www.w3.org/1999/xlink" version="1.1"><rect x="0" y="0" width="900" height="600" fill="#d5ecfe"></rect><defs><linearGradient id="grad1_0" x1="33.3%" y1="0%" x2="100%" y2="100%"><stop offset="20%" stop-color="#34568b" stop-opacity="1"></stop><stop offset="80%" stop-color="#34568b" stop-opacity="1"></stop></linearGradient></defs><defs><linearGradient id="grad1_1" x1="33.3%" y1="0%" x2="100%" y2="100%"><stop offset="20%" stop-color="#34568b" stop-opacity="1"></stop><stop offset="80%" stop-color="#6586b1" stop-opacity="1"></stop></linearGradient></defs><defs><linearGradient id="grad1_2" x1="33.3%" y1="0%" x2="100%" y2="100%"><stop offset="20%" stop-color="#9ab8d7" stop-opacity="1"></stop><stop offset="80%" stop-color="#6586b1" stop-opacity="1"></stop></linearGradient></defs><defs><linearGradient id="grad1_3" x1="33.3%" y1="0%" x2="100%" y2="100%"><stop offset="20%" stop-color="#9ab8d7" stop-opacity="1"></stop><stop offset="80%" stop-color="#d5ecfe" stop-opacity="1"></stop></linearGradient></defs><defs><linearGradient id="grad2_0" x1="0%" y1="0%" x2="66.7%" y2="100%"><stop offset="20%" stop-color="#34568b" stop-opacity="1"></stop><stop offset="80%" stop-color="#34568b" stop-opacity="1"></stop></linearGradient></defs><defs><linearGradient id="grad2_1" x1="0%" y1="0%" x2="66.7%" y2="100%"><stop offset="20%" stop-color="#6586b1" stop-opacity="1"></stop><stop offset="80%" stop-color="#34568b" stop-opacity="1"></stop></linearGradient></defs><defs><linearGradient id="grad2_2" x1="0%" y1="0%" x2="66.7%" y2="100%"><stop offset="20%" stop-color="#6586b1" stop-opacity="1"></stop><stop offset="80%" stop-color="#9ab8d7" stop-opacity="1"></stop></linearGradient></defs><defs><linearGradient id="grad2_3" x1="0%" y1="0%" x2="66.7%" y2="100%"><stop offset="20%" stop-color="#d5ecfe" stop-opacity="1"></stop><stop offset="80%" stop-color="#9ab8d7" stop-opacity="1"></stop></linearGradient></defs><g transform="translate(900, 0)"><path d="M0 367C-44.7 361 -89.4 355 -143.5 346.5C-197.6 337.9 -261 326.7 -286.8 286.8C-312.6 247 -300.9 178.5 -304 125.9C-307.1 73.3 -325 36.7 -343 0L0 0Z" fill="#b7d2ea"></path><path d="M0 275.3C-33.5 270.8 -67.1 266.3 -107.6 259.8C-148.2 253.4 -195.7 245 -215.1 215.1C-234.5 185.2 -225.6 133.9 -228 94.4C-230.3 55 -243.8 27.5 -257.2 0L0 0Z" fill="#7e9fc4"></path><path d="M0 183.5C-22.4 180.5 -44.7 177.5 -71.8 173.2C-98.8 168.9 -130.5 163.3 -143.4 143.4C-156.3 123.5 -150.4 89.2 -152 63C-153.5 36.7 -162.5 18.3 -171.5 0L0 0Z" fill="#4c6e9e"></path><path d="M0 91.8C-11.2 90.3 -22.4 88.8 -35.9 86.6C-49.4 84.5 -65.2 81.7 -71.7 71.7C-78.2 61.7 -75.2 44.6 -76 31.5C-76.8 18.3 -81.3 9.2 -85.7 0L0 0Z" fill="#34568b"></path></g><g transform="translate(0, 600)"><path d="M0 -405.6C47.9 -379.6 95.7 -353.7 133.6 -322.4C171.4 -291.2 199.1 -254.8 220.6 -220.6C242.1 -186.5 257.3 -154.6 285.5 -118.2C313.7 -81.9 354.8 -40.9 396 0L0 0Z" fill="#b7d2ea"></path><path d="M0 -304.2C35.9 -284.7 71.8 -265.2 100.2 -241.8C128.5 -218.4 149.4 -191.1 165.5 -165.5C181.6 -139.9 193 -116 214.1 -88.7C235.2 -61.4 266.1 -30.7 297 0L0 0Z" fill="#7e9fc4"></path><path d="M0 -202.8C23.9 -189.8 47.9 -176.8 66.8 -161.2C85.7 -145.6 99.6 -127.4 110.3 -110.3C121 -93.2 128.6 -77.3 142.7 -59.1C156.8 -40.9 177.4 -20.5 198 0L0 0Z" fill="#4c6e9e"></path><path d="M0 -101.4C12 -94.9 23.9 -88.4 33.4 -80.6C42.8 -72.8 49.8 -63.7 55.2 -55.2C60.5 -46.6 64.3 -38.7 71.4 -29.6C78.4 -20.5 88.7 -10.2 99 0L0 0Z" fill="#34568b"></path></g></svg>